<svg width="24" height="24" viewBox="0 0 24 24" fill="none" xmlns="http://www.w3.org/2000/svg">
<g id="fi-bs-search" clip-path="url(#clip0_20_333)">
<path id="Vector" d="M18.9002 16.7767C20.4968 14.6431 21.2258 11.984 20.9406 9.33449C20.6553 6.68501 19.377 4.24194 17.3629 2.49707C15.3488 0.752201 12.7485 -0.164919 10.0854 -0.0696764C7.42234 0.0255663 4.89419 1.1261 3.0099 3.01039C1.12561 4.89468 0.025078 7.42283 -0.0701647 10.0859C-0.165407 12.749 0.751713 15.3493 2.49658 17.3634C4.24145 19.3775 6.68452 20.6558 9.334 20.941C11.9835 21.2263 14.6427 20.4973 16.7762 18.9007L21.8762 24.0007L24.0002 21.8807L18.9002 16.7767ZM10.5002 18.0007C9.01688 18.0007 7.56683 17.5609 6.33346 16.7368C5.10009 15.9126 4.1388 14.7413 3.57114 13.3709C3.00349 12.0004 2.85496 10.4924 3.14435 9.03755C3.43374 7.58269 4.14805 6.24632 5.19694 5.19743C6.24583 4.14853 7.58221 3.43423 9.03706 3.14484C10.4919 2.85545 11.9999 3.00397 13.3704 3.57163C14.7408 4.13929 15.9122 5.10058 16.7363 6.33395C17.5604 7.56732 18.0002 9.01737 18.0002 10.5007C17.9984 12.4893 17.2076 14.3959 15.8015 15.802C14.3954 17.2081 12.4888 17.9989 10.5002 18.0007Z" fill="currentColor"/>
</g>
<defs>
<clipPath id="clip0_20_333">
<rect width="24" height="24" fill="white"/>
</clipPath>
</defs>
</svg>
